<svg xmlns="http://www.w3.org/2000/svg" id="b" width="190" height="58"><defs><style>.d{fill:#fff}</style></defs><g id="c"><path d="M86.168 48.779c-.306-.504-.13-.916.398-1.064l.157-.044c.44-.123.71.025.98.311.321.34.711.522 1.169.522.536 0 .87-.236.87-.618 0-1.1-3.627-.453-3.627-3.1 0-1.318 1.091-2.174 2.675-2.174 1.18 0 2.152.38 2.6 1.096.36.576.204.994-.388 1.118l-.158.033c-.613.127-.815-.151-1.12-.41a1.264 1.264 0 0 0-.856-.328c-.49 0-.804.23-.804.587 0 1.266 3.68.452 3.68 3.081 0 1.352-1.197 2.223-2.856 2.223-1.16 0-2.251-.46-2.72-1.233ZM92.525 46.319c0-2.588 1.597-3.697 3.383-3.697 1.756 0 3.367 1.109 3.367 3.697 0 2.638-1.601 3.696-3.387 3.696s-3.363-1.058-3.363-3.696Zm4.775-.007c0-1.228-.577-1.918-1.405-1.918-.858 0-1.422.687-1.422 1.918 0 1.282.555 1.942 1.415 1.942.837 0 1.412-.66 1.412-1.942ZM100.443 49.094v-5.57c0-.549.29-.846.823-.846h2.807c.533 0 .822.297.822.845v.088c0 .549-.289.846-.822.846h-1.655v1.34h1.473c.533 0 .822.291.822.805v.01c0 .525-.289.815-.822.815h-1.473v1.667c0 .549-.29.846-.822.846h-.33c-.534 0-.823-.297-.823-.846ZM106.915 49.094v-4.62h-.702c-.533 0-.822-.297-.822-.846v-.105c0-.548.29-.845.822-.845h3.368c.533 0 .822.297.822.845v.105c0 .549-.289.846-.822.846h-.692v4.62c0 .549-.29.846-.822.846h-.33c-.533 0-.822-.297-.822-.846ZM112.644 49.243l-1.741-5.607c-.18-.58.094-.955.686-.955h.422c.49 0 .788.242.914.726l.964 3.69.925-3.687c.122-.487.423-.729.913-.729h.104c.49 0 .792.252.913.736l.922 3.68.976-3.69c.129-.485.421-.726.911-.726h.429c.592 0 .872.368.688.957l-1.75 5.603c-.148.471-.458.699-.935.699h-.384c-.491 0-.79-.245-.914-.736l-.911-3.633-.908 3.633c-.124.494-.423.736-.913.736h-.379c-.477 0-.787-.23-.932-.697ZM126.647 49.94h-.35c-.48 0-.776-.228-.923-.706l-.117-.381h-2.516l-.115.38c-.146.48-.444.707-.925.707h-.35c-.601 0-.868-.393-.657-.972l2.047-5.612c.168-.46.47-.678.944-.678h.62c.473 0 .775.218.944.679l2.053 5.61c.212.58-.057.973-.656.973Zm-2.652-5.063-.806 2.554h1.617l-.811-2.554ZM133.143 49.94h-.369c-.47 0-.746-.21-.946-.654l-.714-1.551c-.08.003-.16.005-.243.005h-.59v1.355c0 .548-.288.845-.821.845h-.347c-.533 0-.822-.297-.822-.845v-5.572c0-.548.29-.845.822-.845h1.798c2.389 0 3.054.927 3.054 2.487 0 .885-.325 1.658-1.101 2.12l.872 1.655c.34.646.162 1-.593 1Zm-1.169-4.608c0-.62-.291-.963-1.113-.963h-.59v1.937h.59c.822 0 1.113-.34 1.113-.974ZM135.158 49.094v-5.57c0-.549.289-.846.822-.846h3.1c.533 0 .822.297.822.845v.105c0 .549-.29.846-.822.846h-1.948v1.077h1.773c.533 0 .822.263.822.735v.01c0 .48-.29.74-.823.74h-1.772v1.115h1.948c.533 0 .822.297.822.845v.098c0 .549-.29.846-.822.846h-3.1c-.533 0-.822-.297-.822-.846ZM143.558 46.289c0-2.217 1.373-3.677 3.386-3.677 1.248 0 2.166.332 2.702 1.144.334.505.15.84-.436.994l-.302.079c-.445.116-.718-.015-.985-.24a1.345 1.345 0 0 0-.906-.32c-.892 0-1.465.805-1.465 2.044 0 1.248.557 2.016 1.452 2.016.683 0 1.149-.416 1.22-1.18h-.713c-.479 0-.748-.264-.748-.736v-.01c0-.463.292-.722.822-.722h1.864c.52 0 .836.127.836.563v.154c0 2.265-1.271 3.608-3.37 3.608-2.043 0-3.357-1.45-3.357-3.717ZM156.309 49.94h-.369c-.47 0-.747-.21-.947-.654l-.713-1.551c-.08.003-.16.005-.244.005h-.588v1.355c0 .548-.29.845-.823.845h-.346c-.533 0-.823-.297-.823-.845v-5.572c0-.548.29-.845.823-.845h1.797c2.39 0 3.055.927 3.055 2.487 0 .885-.325 1.658-1.102 2.12l.872 1.655c.341.646.163 1-.592 1Zm-1.169-4.608c0-.62-.292-.963-1.113-.963h-.59v1.937h.59c.821 0 1.113-.34 1.113-.974ZM157.984 46.319c0-2.588 1.597-3.697 3.382-3.697 1.757 0 3.367 1.109 3.367 3.697 0 2.638-1.6 3.696-3.386 3.696s-3.363-1.058-3.363-3.696Zm4.774-.007c0-1.228-.577-1.918-1.405-1.918-.856 0-1.42.687-1.42 1.918 0 1.282.554 1.942 1.414 1.942.837 0 1.411-.66 1.411-1.942ZM165.814 46.591v-3.068c0-.548.29-.845.823-.845h.336c.533 0 .823.297.823.845v3.058c0 1.164.304 1.646 1.068 1.646.77 0 1.075-.482 1.075-1.636v-3.068c0-.548.29-.845.823-.845h.35c.533 0 .822.297.822.845v3.082c0 2.322-1.015 3.407-3.07 3.407s-3.05-1.068-3.05-3.421ZM173.276 49.094v-5.57c0-.549.29-.846.822-.846h1.398c2.626 0 3.477.927 3.477 2.82s-.85 2.77-3.454 2.77h-.261v.826c0 .548-.29.846-.823.846h-.337c-.533 0-.822-.297-.822-.846Zm3.676-3.63c0-.655-.288-1.044-1.11-1.044h-.584v2.11h.584c.822 0 1.11-.403 1.11-1.067ZM85.642 26.97c0-5.915 3.924-10.156 9.41-10.156 3.99 0 6.684 1.505 8.18 4.412.565 1.094.1 1.88-.931 2.086l-.266.068c-.931.205-1.563-.171-2.128-1.026-1.064-1.539-2.627-2.291-4.688-2.291-3.458 0-5.852 2.804-5.852 6.908 0 4.069 2.394 6.873 5.852 6.873 1.995 0 3.558-.787 4.622-2.257.565-.855 1.163-1.197 2.094-1.026l.133.034c1.164.24 1.663.958 1.197 1.95-1.463 2.94-4.289 4.582-8.212 4.582-5.387 0-9.41-4.138-9.41-10.157ZM107.754 35.04v-22.5c0-1.094.598-1.71 1.662-1.71h.432c1.065 0 1.663.616 1.663 1.71v22.5c0 1.095-.598 1.71-1.663 1.71h-.432c-1.064 0-1.662-.615-1.662-1.71ZM115.235 26.97c0-7.044 4.755-10.156 9.61-10.156s9.642 3.112 9.642 10.157c0 7.112-4.755 10.224-9.61 10.224-4.887 0-9.642-3.112-9.642-10.224Zm15.528 0c0-4.274-2.394-6.907-5.919-6.907s-5.885 2.599-5.885 6.908c0 4.342 2.36 6.941 5.919 6.941 3.524 0 5.885-2.633 5.885-6.941ZM153.771 17.19c1.064 0 1.663.616 1.663 1.71v16.141c0 1.094-.599 1.71-1.663 1.71h-.399c-1.064 0-1.662-.616-1.662-1.71v-1.945c-.866 2.268-3.025 3.997-6.217 3.997-5.254 0-7.681-3.112-7.681-9.302v-8.89c0-1.095.598-1.71 1.662-1.71h.399c1.064 0 1.663.615 1.663 1.71v8.582c0 4.275 1.596 6.292 5.12 6.292 3.591 0 5.055-2.427 5.055-6.736V18.9c0-1.094.598-1.71 1.662-1.71h.399ZM159.325 26.97c0-6.736 3.99-10.156 8.711-10.156 2.993 0 5.687 1.505 6.75 4.206v-8.48c0-1.094.599-1.71 1.663-1.71h.4c1.063 0 1.661.616 1.661 1.71v22.466c0 1.095-.598 1.71-1.662 1.71h-.399c-1.064 0-1.663-.615-1.663-1.71v-1.983c-1.063 2.633-3.757 4.172-6.716 4.172-4.722 0-8.745-3.454-8.745-10.224Zm15.561 0c0-4.274-2.394-6.907-5.951-6.907-3.492 0-5.886 2.599-5.886 6.908 0 4.342 2.394 6.941 5.952 6.941 3.525 0 5.885-2.633 5.885-6.941ZM181.678 11.794V8.921h-.823c-.325 0-.508-.147-.508-.419 0-.271.183-.418.508-.418h2.51c.325 0 .508.147.508.418 0 .272-.183.419-.508.419h-.803v2.873c0 .335-.152.523-.437.523s-.447-.188-.447-.523Zm2.673.533c-.275 0-.42-.21-.346-.575l.65-3.208c.061-.303.244-.46.55-.46h.151c.285 0 .476.137.58.408l1.056 2.759 1.067-2.759c.106-.274.305-.407.59-.407h.142c.304 0 .487.156.548.46l.64 3.207c.073.366-.05.575-.325.575-.294 0-.476-.157-.538-.46l-.539-2.623-1.016 2.676c-.106.28-.284.407-.559.407-.284 0-.462-.127-.569-.407l-1.016-2.676-.528 2.623c-.061.304-.244.46-.539.46ZM58.395 15.76C56.033 6.563 47.82 0 38.458 0S20.882 6.566 18.521 15.762C8.05 16.844 0 25.885 0 36.825 0 48.502 9.251 58 20.623 58h35.704c11.371 0 20.623-9.499 20.623-21.174 0-10.962-8.068-20.006-18.555-21.067Zm-35.478 2.97a16.655 16.655 0 0 0-.181 2.102c-.653-.09-1.32-.134-1.981-.14.018-.707.074-1.413.171-2.113a17.33 17.33 0 0 1 1.991.151Zm33.073-.157c.098.702.154 1.41.172 2.12a15.38 15.38 0 0 0-1.98.144 16.57 16.57 0 0 0-.183-2.107c.659-.09 1.324-.145 1.991-.157ZM20.318 28.838l1.918-.077-.594-1.834a18.51 18.51 0 0 1-.74-3.31c1.008.022 2.008.16 2.976.421l2.034.55-.21-2.105a13.32 13.32 0 0 1 .062-3.128 17.2 17.2 0 0 1 2.996 1.253l1.736.928.374-1.94c.717-3.717 3.909-6.416 7.588-6.416 3.686 0 6.878 2.704 7.59 6.43l.373 1.947 1.741-.935a17.152 17.152 0 0 1 2.992-1.257 13.698 13.698 0 0 1 .06 3.137l-.198 2.103 2.03-.558c.96-.265 1.953-.41 2.97-.434a18.51 18.51 0 0 1-.741 3.314l-.596 1.841 1.926.07c4.184.15 7.461 3.66 7.461 7.987 0 4.409-3.472 7.995-7.74 7.995H20.624c-4.268 0-7.74-3.586-7.74-7.995 0-4.313 3.266-7.821 7.435-7.987ZM48.403 17.27c-1.55-4.153-5.483-7.011-9.945-7.011-4.455 0-8.388 2.853-9.94 7a20.05 20.05 0 0 0-2.059-.742c1.856-5.104 6.606-8.56 12-8.56 5.397 0 10.148 3.46 12 8.569-.697.212-1.385.457-2.056.744ZM18.01 23.887c.095.762.225 1.516.4 2.259-4.85 1.04-8.433 5.422-8.433 10.68 0 6.018 4.776 10.914 10.647 10.914h35.704c5.87 0 10.646-4.896 10.646-10.914 0-5.276-3.594-9.66-8.463-10.686.175-.744.305-1.499.4-2.26 2.615.552 5.005 1.935 6.842 3.987 2.189 2.446 3.394 5.628 3.394 8.958 0 7.289-5.75 13.219-12.82 13.219H20.624c-7.069 0-12.82-5.93-12.82-13.219 0-3.325 1.203-6.503 3.386-8.948 1.829-2.05 4.211-3.433 6.82-3.99ZM38.459 2.92c7.756 0 14.598 5.267 16.892 12.756-.682.033-1.361.1-2.034.202-2.171-6.446-8.102-10.84-14.859-10.84-6.753 0-12.684 4.392-14.858 10.835-.673-.1-1.352-.167-2.034-.198C23.86 8.187 30.702 2.92 38.458 2.92Zm17.868 52.16H20.623c-9.769 0-17.716-8.189-17.716-18.255 0-9.134 6.485-16.733 15.065-18.05-.08.719-.123 1.443-.13 2.167-3.38.62-6.472 2.358-8.818 4.985-2.662 2.982-4.127 6.852-4.127 10.898 0 8.9 7.054 16.139 15.726 16.139h35.704c8.671 0 15.726-7.24 15.726-16.139 0-4.052-1.47-7.927-4.14-10.91-2.352-2.63-5.452-4.366-8.837-4.979a21.826 21.826 0 0 0-.132-2.166c8.599 1.3 15.099 8.902 15.099 18.055 0 10.066-7.948 18.255-17.716 18.255Z" class="d"/></g></svg>